<?xml version="1.0" encoding="UTF-8" standalone="no"?>
<!-- Svg Vector Icons : http://www.onlinewebfonts.com/icon -->

<svg
   version="1.1"
   x="0px"
   y="0px"
   viewBox="0 0 1000 1000"
   enable-background="new 0 0 1000 1000"
   xml:space="preserve"
   id="svg12"
   sodipodi:docname="cart.svg"
   inkscape:version="1.1.2 (b8e25be833, 2022-02-05)"
   xmlns:inkscape="http://www.inkscape.org/namespaces/inkscape"
   xmlns:sodipodi="http://sodipodi.sourceforge.net/DTD/sodipodi-0.dtd"
   xmlns="http://www.w3.org/2000/svg"
   xmlns:svg="http://www.w3.org/2000/svg"><defs
   id="defs16" /><sodipodi:namedview
   id="namedview14"
   pagecolor="#ffffff"
   bordercolor="#999999"
   borderopacity="1"
   inkscape:pageshadow="0"
   inkscape:pageopacity="0"
   inkscape:pagecheckerboard="0"
   showgrid="false"
   inkscape:zoom="0.58760574"
   inkscape:cx="538.62646"
   inkscape:cy="185.49853"
   inkscape:window-width="1920"
   inkscape:window-height="1017"
   inkscape:window-x="-8"
   inkscape:window-y="-8"
   inkscape:window-maximized="1"
   inkscape:current-layer="svg12" />
<metadata
   id="metadata2"> Svg Vector Icons : http://www.onlinewebfonts.com/icon </metadata>
<g
   id="g10"
   transform="matrix(1.021261,0,0,1.021261,-11.957531,-10.979414)"><path
     d="m 412.5,836.5 c -41.8,0 -75.8,32.2 -75.8,71.8 0,39.6 34,71.8 75.8,71.8 41.8,0 75.8,-32.2 75.8,-71.8 0,-39.6 -34,-71.8 -75.8,-71.8 z m 0,102.8 c -19.3,0 -35,-13.9 -35,-31 0,-17.1 15.7,-31 35,-31 19.3,0 35,13.9 35,31 0,17.1 -15.7,31 -35,31 z"
     id="path4" /><path
     d="m 800.4,836.5 c -41.8,0 -75.8,32.2 -75.8,71.8 0,39.6 34,71.8 75.8,71.8 41.8,0 75.8,-32.2 75.8,-71.8 0,-39.6 -33.9,-71.8 -75.8,-71.8 z m 0,102.8 c -19.3,0 -35,-13.9 -35,-31 0,-17.1 15.7,-31 35,-31 19.3,0 35,13.9 35,31 0,17.1 -15.7,31 -35,31 z"
     id="path6" /><path
     d="M 887.4,657.5 989.5,228.8 c 1.4,-6.1 0,-12.5 -3.8,-17.4 -3.9,-4.9 -9.8,-7.8 -16,-7.8 H 173.3 c -3.3,0 -6.3,1 -9.1,2.4 L 113.2,19.9 H 10 V 60.7 H 82.1 L 289.2,816.1 H 887.9 V 775.3 H 320.4 l -28,-102.1 h 575.1 c 9.4,0 17.7,-6.5 19.9,-15.7 z M 452.9,509.8 439.3,407.7 h 231.8 l -13.6,102.1 z m 199.2,40.9 -10.9,81.7 H 469.3 L 458.4,550.7 Z M 219.6,407.8 h 178.5 l 13.6,102.1 H 247.6 Z M 433.9,366.9 417.6,244.4 H 693 l -16.3,122.5 z m 278.4,40.9 H 904.8 L 880.5,509.9 H 698.7 Z M 914.6,366.9 H 717.8 L 734.1,244.4 H 943.7 Z M 376.3,244.4 392.6,366.9 H 208.4 L 174.8,244.4 Z M 258.8,550.7 h 158.4 l 10.9,81.7 H 281.2 Z m 423.6,81.6 10.9,-81.7 h 177.5 l -19.4,81.7 z"
     id="path8" /></g>
</svg>
